<?xml version="1.0" encoding="UTF-8"?>
<svg id="Capa_1" xmlns="http://www.w3.org/2000/svg" xmlns:xlink="http://www.w3.org/1999/xlink" version="1.1" viewBox="0 0 1920 1080">
  <!-- Generator: Adobe Illustrator 29.3.1, SVG Export Plug-In . SVG Version: 2.1.0 Build 151)  -->
  <defs>
    <style>
      .st0 {
        fill: #2b2b2b;
      }

      .st0, .st1, .st2, .st3, .st4, .st5, .st6, .st7, .st8, .st9, .st10, .st11 {
        stroke-miterlimit: 10;
      }

      .st0, .st7, .st8, .st11 {
        stroke: #1d1d1b;
      }

      .st1 {
        stroke: url(#Degradado_sin_nombre_8);
      }

      .st1, .st2, .st3, .st4, .st5, .st6, .st9, .st10 {
        fill: none;
        stroke-width: 3px;
      }

      .st2 {
        stroke: url(#Degradado_sin_nombre_9);
      }

      .st3 {
        stroke: url(#Degradado_sin_nombre_6);
      }

      .st4 {
        stroke: url(#Degradado_sin_nombre_7);
      }

      .st5 {
        stroke: url(#Degradado_sin_nombre_5);
      }

      .st6 {
        stroke: url(#Degradado_sin_nombre_4);
      }

      .st7 {
        fill: url(#Degradado_sin_nombre_2);
      }

      .st8 {
        fill: url(#Degradado_sin_nombre_3);
      }

      .st9 {
        stroke: url(#Degradado_sin_nombre_11);
      }

      .st10 {
        stroke: url(#Degradado_sin_nombre_10);
      }

      .st11 {
        fill: url(#Degradado_sin_nombre);
      }
    </style>
    <linearGradient id="Degradado_sin_nombre" data-name="Degradado sin nombre" x1="146.9" y1="531.3" x2="610.7" y2="531.3" gradientTransform="translate(0 1080) scale(1 -1)" gradientUnits="userSpaceOnUse">
      <stop offset="0" stop-color="#e30613"/>
      <stop offset=".4" stop-color="#e10512"/>
      <stop offset=".5" stop-color="#da0512"/>
      <stop offset=".6" stop-color="#ce0511"/>
      <stop offset=".7" stop-color="#bd050f"/>
      <stop offset=".8" stop-color="#a7040e"/>
      <stop offset=".8" stop-color="#8c030b"/>
      <stop offset=".9" stop-color="#6b0209"/>
      <stop offset=".9" stop-color="#460105"/>
      <stop offset="1" stop-color="#1d0002"/>
      <stop offset="1" stop-color="#000"/>
    </linearGradient>
    <linearGradient id="Degradado_sin_nombre_2" data-name="Degradado sin nombre 2" x1="1202.3" y1="514.3" x2="1666.1" y2="514.3" gradientTransform="translate(0 1080) scale(1 -1)" gradientUnits="userSpaceOnUse">
      <stop offset="0" stop-color="#e30613"/>
      <stop offset="0" stop-color="#bc040f"/>
      <stop offset="0" stop-color="#90030c"/>
      <stop offset=".2" stop-color="#690208"/>
      <stop offset=".3" stop-color="#480106"/>
      <stop offset=".4" stop-color="#2e0103"/>
      <stop offset=".5" stop-color="#190002"/>
      <stop offset=".6" stop-color="#0b0000"/>
      <stop offset=".8" stop-color="#020000"/>
      <stop offset="1" stop-color="#000"/>
    </linearGradient>
    <linearGradient id="Degradado_sin_nombre_3" data-name="Degradado sin nombre 3" x1="780.9" y1="520.8" x2="1093.7" y2="520.8" gradientTransform="translate(0 1080) scale(1 -1)" gradientUnits="userSpaceOnUse">
      <stop offset="0" stop-color="#e30613"/>
      <stop offset="0" stop-color="#d80512"/>
      <stop offset=".3" stop-color="#bd050f"/>
      <stop offset=".5" stop-color="#90030c"/>
      <stop offset=".7" stop-color="#520206"/>
      <stop offset="1" stop-color="#040000"/>
      <stop offset="1" stop-color="#000"/>
    </linearGradient>
    <linearGradient id="Degradado_sin_nombre_4" data-name="Degradado sin nombre 4" x1="809.4" y1="948.1" x2="1065" y2="948.1" gradientTransform="translate(0 1080) scale(1 -1)" gradientUnits="userSpaceOnUse">
      <stop offset="0" stop-color="#e30613"/>
      <stop offset="0" stop-color="#d80512"/>
      <stop offset=".3" stop-color="#bd050f"/>
      <stop offset=".5" stop-color="#90030c"/>
      <stop offset=".7" stop-color="#520206"/>
      <stop offset="1" stop-color="#040000"/>
      <stop offset="1" stop-color="#000"/>
    </linearGradient>
    <linearGradient id="Degradado_sin_nombre_5" data-name="Degradado sin nombre 5" x1="857.7" y1="947.2" x2="1013" y2="947.2" gradientTransform="translate(0 1080) scale(1 -1)" gradientUnits="userSpaceOnUse">
      <stop offset="0" stop-color="#e30613"/>
      <stop offset="0" stop-color="#d80512"/>
      <stop offset=".3" stop-color="#bd050f"/>
      <stop offset=".5" stop-color="#90030c"/>
      <stop offset=".7" stop-color="#520206"/>
      <stop offset="1" stop-color="#040000"/>
      <stop offset="1" stop-color="#000"/>
    </linearGradient>
    <linearGradient id="Degradado_sin_nombre_6" data-name="Degradado sin nombre 6" x1="939.4" y1="858.2" x2="1040.6" y2="858.2" gradientTransform="translate(0 1080) scale(1 -1)" gradientUnits="userSpaceOnUse">
      <stop offset="0" stop-color="#e30613"/>
      <stop offset="0" stop-color="#d80512"/>
      <stop offset=".3" stop-color="#bd050f"/>
      <stop offset=".5" stop-color="#90030c"/>
      <stop offset=".7" stop-color="#520206"/>
      <stop offset="1" stop-color="#040000"/>
      <stop offset="1" stop-color="#000"/>
    </linearGradient>
    <linearGradient id="Degradado_sin_nombre_7" data-name="Degradado sin nombre 7" x1="894.3" y1="660.3" x2="995.5" y2="660.3" gradientTransform="translate(-158.1 -268.5) rotate(60.2) scale(1 -1)" gradientUnits="userSpaceOnUse">
      <stop offset="0" stop-color="#e30613"/>
      <stop offset="0" stop-color="#d80512"/>
      <stop offset=".3" stop-color="#bd050f"/>
      <stop offset=".5" stop-color="#90030c"/>
      <stop offset=".7" stop-color="#520206"/>
      <stop offset="1" stop-color="#040000"/>
      <stop offset="1" stop-color="#000"/>
    </linearGradient>
    <linearGradient id="Degradado_sin_nombre_8" data-name="Degradado sin nombre 8" x1="1049.4" y1="623.4" x2="1150.6" y2="623.4" gradientTransform="translate(857.1 -1129.8) rotate(120.6) scale(1 -1)" gradientUnits="userSpaceOnUse">
      <stop offset="0" stop-color="#e30613"/>
      <stop offset="0" stop-color="#d80512"/>
      <stop offset=".3" stop-color="#bd050f"/>
      <stop offset=".5" stop-color="#90030c"/>
      <stop offset=".7" stop-color="#520206"/>
      <stop offset="1" stop-color="#040000"/>
      <stop offset="1" stop-color="#000"/>
    </linearGradient>
    <linearGradient id="Degradado_sin_nombre_9" data-name="Degradado sin nombre 9" x1="1209.9" y1="928.5" x2="1311" y2="928.5" gradientTransform="translate(2116 -918.6) rotate(178.4) scale(1 -1)" gradientUnits="userSpaceOnUse">
      <stop offset="0" stop-color="#e30613"/>
      <stop offset="0" stop-color="#d80512"/>
      <stop offset=".3" stop-color="#bd050f"/>
      <stop offset=".5" stop-color="#90030c"/>
      <stop offset=".7" stop-color="#520206"/>
      <stop offset="1" stop-color="#040000"/>
      <stop offset="1" stop-color="#000"/>
    </linearGradient>
    <linearGradient id="Degradado_sin_nombre_10" data-name="Degradado sin nombre 10" x1="1165.6" y1="1353.9" x2="1266.7" y2="1353.9" gradientTransform="translate(2774.7 379.8) rotate(-121.2) scale(1 -1)" gradientUnits="userSpaceOnUse">
      <stop offset="0" stop-color="#e30613"/>
      <stop offset="0" stop-color="#d80512"/>
      <stop offset=".3" stop-color="#bd050f"/>
      <stop offset=".5" stop-color="#90030c"/>
      <stop offset=".7" stop-color="#520206"/>
      <stop offset="1" stop-color="#040000"/>
      <stop offset="1" stop-color="#000"/>
    </linearGradient>
    <linearGradient id="Degradado_sin_nombre_11" data-name="Degradado sin nombre 11" x1="1016.7" y1="1459.7" x2="1117.8" y2="1459.7" gradientTransform="translate(1752.1 1795.1) rotate(-59.3) scale(1 -1)" gradientUnits="userSpaceOnUse">
      <stop offset="0" stop-color="#e30613"/>
      <stop offset="0" stop-color="#d80512"/>
      <stop offset=".3" stop-color="#bd050f"/>
      <stop offset=".5" stop-color="#90030c"/>
      <stop offset=".7" stop-color="#520206"/>
      <stop offset="1" stop-color="#040000"/>
      <stop offset="1" stop-color="#000"/>
    </linearGradient>
  </defs>
  <path class="st11" d="M293.5,252.9h317.2v591.7h-165.4v-197.8H146.9s144.9-393.9,146.7-393.9h0Z"/>
  <path class="st0" d="M404.4,375.6l-76.7,138.1h163.7s-80.1-138.1-87-138.1h0Z"/>
  <path class="st7" d="M1348.9,269.9h317.2v591.7h-165.4v-197.8h-298.4s144.9-393.9,146.7-393.9h0Z"/>
  <path class="st0" d="M1459.7,392.7l-76.7,138.1h163.7s-80.1-138.1-87-138.1h0Z"/>
  <ellipse class="st8" cx="937.3" cy="559.2" rx="156.4" ry="297.9"/>
  <ellipse class="st0" cx="938.2" cy="551.8" rx="80.9" ry="154.1"/>
  <g id="Capa_2">
    <g>
      <circle class="st6" cx="937.2" cy="131.9" r="126.3"/>
      <path class="st5" d="M929.1,173.3s-11.9.7-25.6-14.7l-32.4,24.2-11.2-18.1,37.5-16.7s-5.8-16.4.3-30l-37.5-16,9.9-19.4,34.1,25.2s10.6-12.9,25.2-15l-4.8-41.2,21.8.3-4.8,41.2s16.4,3.1,24.9,14l33.4-24.2s11.3,14,11.5,19.8l-38,15.5s6.1,18.4.2,29.8l37.4,15.7s-8,17.2-10.8,19.6l-32.9-24.7s-11.6,14.5-26,15.1l5.5,39.6-23.1.6,5.3-40.8v.2Z"/>
      <path class="st3" d="M960.7,230.9l2.4,9.2-22.1,3.2.5,9.2s58.3.8,97-55.5l-8.5-5.4-13.8,17.4-6.7-6.2s-25.2,25.9-48.9,28h.1Z"/>
      <path class="st4" d="M862.2,202.5l-6.8,6.7-13.8-17.6-7.7,5s28.3,51,96.4,56.6l.4-10-22-3.3,2.1-8.9s-35-9-48.6-28.5h0Z"/>
      <path class="st1" d="M840.8,104.8l-9.2-2.6,8.5-20.7-8.2-4.2s-30.4,49.8-1.6,111.7l8.9-4.6-8-20.7,8.8-2.6s-9.5-34.9.7-56.3h0Z"/>
      <path class="st2" d="M911.1,34.8l-2.7-9.1,22-3.8-.8-9.2s-58.3.8-95.4,58.2l8.6,5.1,13.3-17.8,6.9,6.1s24.5-26.6,48.1-29.4h0Z"/>
      <path class="st10" d="M1009.5,61.2l6.6-6.8,14.2,17.2,7.6-5.2s-29.5-50.3-97.7-54.3l-.2,10,22.1,2.7-1.9,9s35.2,8.2,49.2,27.3h.1Z"/>
      <path class="st9" d="M1034.7,161.8l9.2,2.6-8.5,20.6,8.1,4.3s30.5-49.7,1.9-111.7l-8.9,4.6,8,20.7-8.8,2.6s9.4,34.9-.9,56.3h0Z"/>
    </g>
  </g>
  <metadata>
    <sfw xmlns="http://ns.adobe.com/SaveForWeb/1.0/">
      <slices/>
      <sliceSourceBounds x="146.18" y="217.9" width="1520.42" height="858" bottomLeftOrigin="true"/>
    </sfw>
  </metadata>
</svg>